<svg width="557" height="495" viewBox="0 0 557 495" fill="none" xmlns="http://www.w3.org/2000/svg">
<path d="M372.059 429.258H422.102C438.259 429.258 453.755 423.554 465.18 413.4C476.605 403.247 483.023 389.476 483.023 375.117V330.645M483.023 164.355V119.883C483.023 105.524 476.605 91.7529 465.18 81.5996C453.755 71.4463 438.259 65.7422 422.102 65.7422H372.059M184.941 429.258H134.898C118.741 429.258 103.245 423.554 91.8202 413.4C80.3951 403.247 73.9766 389.476 73.9766 375.117V330.645M73.9766 164.355V119.883C73.9766 105.524 80.3951 91.7529 91.8202 81.5996C103.245 71.4463 118.741 65.7422 134.898 65.7422H184.941" stroke="#287CD8" stroke-width="12" stroke-linecap="round" stroke-linejoin="round"/>
</svg>
